<svg xmlns="http://www.w3.org/2000/svg" xmlns:xlink="http://www.w3.org/1999/xlink" viewBox="0 0 250 34"><defs><polygon id="amazon-alexa-a" points=".01 .992 13.857 .992 13.857 19.692 .01 19.692"/></defs><g fill="none" fill-rule="evenodd"><path fill="#31C4F3" d="M14.7137931,33.8589 L14.7137931,30.4589 C14.7137931,29.3255667 13.9925287,28.1922333 12.8385057,27.7658167 C8.51091954,25.92415 5.62586207,21.8172333 5.62586207,17.0005667 C5.62586207,10.6255667 10.9632184,5.38248333 17.4545977,5.38248333 C23.945977,5.38248333 29.2833333,10.6255667 29.2833333,17.0005667 C29.2833333,24.5074833 23.3689655,31.5908167 14.7137931,33.8589 M17.4545977,0.000566666667 C7.78965517,0.000566666667 0.144252874,7.65056667 0.144252874,17.0005667 C0.144252874,26.34915 7.93390805,34.0005667 17.4545977,34.0005667 C26.9752874,34.0005667 34.7649425,26.34915 34.7649425,17.0005667 C34.7649425,7.65056667 26.9752874,0.000566666667 17.4545977,0.000566666667"/><path fill="#343E48" d="M53.0852017 19.4086167C49.7673856 19.4086167 48.0363511 20.6822 48.0363511 23.2336167 48.0363511 25.5002833 49.1903741 26.6336167 51.642673 26.6336167 52.5081902 26.6336167 53.5179603 26.49195 54.6719833 26.06695 55.6817534 25.6405333 56.8357764 25.21695 57.8455466 24.5086167L57.8455466 20.11695C56.2587649 19.5502833 54.6719833 19.4086167 53.0852017 19.4086167M53.6622132 9.63361667C57.8455466 9.63361667 59.8650868 11.3336167 59.8650868 14.8752833L59.8650868 27.4836167C59.8650868 27.7655333 59.7208339 28.0502833 59.2880753 28.0502833L58.5668109 28.0502833C58.2783052 28.0502833 57.9897994 27.9086167 57.9897994 27.4836167L57.8455466 25.9252833C55.8260063 27.6252833 53.6622132 28.3336167 51.3541672 28.3336167 49.6231328 28.3336167 48.3248569 27.9086167 47.4593397 26.91695 46.4495695 25.9252833 46.0168109 24.79195 46.0168109 23.2336167 46.0168109 21.5336167 46.5938224 20.11695 47.7478454 19.1252833 48.9018684 18.1336167 50.6329029 17.56695 52.6524431 17.56695 53.3737075 17.56695 54.2392247 17.56695 55.2489948 17.8488667 56.1145121 17.99195 56.9800293 18.1336167 57.8455466 18.41695L57.8455466 15.44195C57.8455466 14.0252833 57.5570408 13.0336167 56.8357764 12.3252833 56.1145121 11.7586167 54.9604891 11.3336167 53.3737075 11.3336167 51.9311787 11.3336167 50.3443971 11.61695 48.6133626 12.04195 48.3248569 12.04195 48.180604 12.1836167 48.0363511 12.1836167 47.8920983 12.1836167 47.7478454 12.3252833 47.6035925 12.3252833 47.3150868 12.3252833 47.1708339 12.1836167 47.1708339 11.9002833L47.1708339 11.3336167C47.1708339 10.9086167 47.3150868 10.76695 47.6035925 10.6252833 48.4691098 10.2002833 49.4788799 10.0586167 50.48865 9.77528333 51.642673 9.63361667 52.6524431 9.63361667 53.6622132 9.63361667M85.6864954 9.63305C87.4175299 9.63305 88.5715529 10.05805 89.4370701 11.0497167 90.3025874 11.8997167 90.735346 13.3163833 90.735346 15.0163833L90.735346 27.4844667C90.735346 27.7663833 90.5910931 28.0497167 90.1583345 28.0497167L89.1485644 28.0497167C88.8600586 28.0497167 88.5715529 27.90805 88.5715529 27.4844667L88.5715529 15.8663833C88.5715529 14.30805 88.2830471 13.1747167 87.7060356 12.4663833 87.1290241 11.75805 86.2635069 11.4747167 85.1094839 11.4747167 82.8014379 11.4747167 80.6376448 12.18305 78.6181046 13.7413833 78.6181046 14.30805 78.7623575 14.8747167 78.7623575 15.4413833L78.7623575 27.4844667C78.7623575 27.7663833 78.6181046 28.0497167 78.185346 28.0497167L77.1755759 28.0497167C76.8870701 28.0497167 76.5985644 27.90805 76.5985644 27.4844667L76.5985644 15.8663833C76.5985644 14.30805 76.3100586 13.1747167 75.7330471 12.4663833 75.1560356 11.75805 74.2905184 11.4747167 73.1364954 11.4747167 70.8284494 11.4747167 68.8089092 12.18305 66.6451161 13.5997167L66.6451161 27.4844667C66.6451161 27.7663833 66.5008632 28.0497167 66.0681046 28.0497167L65.0583345 28.0497167C64.6255759 28.0497167 64.481323 27.90805 64.481323 27.4844667L64.481323 10.6247167C64.481323 10.1997167 64.6255759 10.05805 65.0583345 10.05805L65.7795989 10.05805C66.2123575 10.05805 66.3566103 10.1997167 66.3566103 10.6247167L66.5008632 12.0413833C67.6548862 11.1913833 68.6646563 10.6247167 69.9629322 10.1997167 71.1169552 9.77471667 72.2709782 9.49138333 73.4250011 9.49138333 75.7330471 9.49138333 77.1755759 10.3413833 78.0410931 12.18305 79.1951161 11.33305 80.3491391 10.6247167 81.6474149 10.1997167 83.0899437 9.77471667 84.3882195 9.63305 85.6864954 9.63305M101.554311 19.4086167C98.2364954 19.4086167 96.5054609 20.6822 96.5054609 23.2336167 96.5054609 25.5002833 97.6594839 26.6336167 100.111783 26.6336167 100.9773 26.6336167 101.98707 26.49195 103.141093 26.06695 104.150863 25.6405333 105.304886 25.21695 106.314656 24.5086167L106.314656 20.11695C104.583622 19.5502833 103.141093 19.4086167 101.554311 19.4086167M102.131323 9.63361667C106.314656 9.63361667 108.334197 11.3336167 108.334197 14.8752833L108.334197 27.4836167C108.334197 27.7655333 108.189944 28.0502833 107.757185 28.0502833L107.035921 28.0502833C106.603162 28.0502833 106.458909 27.9086167 106.458909 27.4836167L106.314656 25.9252833C104.295116 27.6252833 102.131323 28.3336167 99.823277 28.3336167 98.0922425 28.3336167 96.7939667 27.9086167 95.9284494 26.91695 94.9186793 25.9252833 94.4859207 24.79195 94.4859207 23.2336167 94.4859207 21.5336167 95.0629322 20.11695 96.2169552 19.1252833 97.3709782 18.1336167 99.1020126 17.56695 101.121553 17.56695 101.842817 17.56695 102.708334 17.56695 103.718105 17.8488667 104.583622 17.99195 105.449139 18.1336167 106.314656 18.41695L106.314656 15.44195C106.314656 14.0252833 106.026151 13.0336167 105.304886 12.3252833 104.583622 11.7586167 103.429599 11.3336167 101.842817 11.3336167 100.400289 11.3336167 98.8135069 11.61695 97.0824724 12.04195 96.7939667 12.04195 96.6497138 12.1836167 96.5054609 12.1836167 96.361208 12.1836167 96.2169552 12.3252833 96.0727023 12.3252833 95.7841966 12.3252833 95.6399437 12.1836167 95.6399437 11.9002833L95.6399437 11.3336167C95.6399437 10.9086167 95.7841966 10.76695 96.0727023 10.6252833 96.9382195 10.2002833 97.9479897 10.0586167 98.9577598 9.77528333 100.111783 9.63361667 101.121553 9.63361667 102.131323 9.63361667M125.644109 26.7755667L125.644109 27.4839C125.644109 27.9089 125.499856 28.04915 125.067097 28.04915L112.372844 28.04915C111.940086 28.04915 111.795833 27.9089 111.795833 27.4839L111.795833 26.7755667C111.795833 26.4922333 111.795833 26.34915 111.940086 26.2089 111.940086 26.0672333 112.084339 25.92415 112.228591 25.7839L123.19181 12.0422333 112.66135 12.0422333C112.372844 12.0422333 112.084339 11.9005667 112.084339 11.4755667L112.084339 10.6255667C112.084339 10.2005667 112.228591 10.0589 112.66135 10.0589L125.067097 10.0589C125.499856 10.0589 125.644109 10.2005667 125.644109 10.6255667L125.644109 11.3339C125.644109 11.4755667 125.644109 11.7574833 125.499856 11.9005667 125.499856 12.0422333 125.355603 12.1839 125.067097 12.4658167L114.103879 26.2089 125.067097 26.2089C125.499856 26.2089 125.644109 26.34915 125.644109 26.7755667M136.175001 26.63305C140.356892 26.63305 142.377875 24.08305 142.377875 18.9844667 142.377875 13.88305 140.356892 11.33305 136.175001 11.33305 131.991668 11.33305 129.972128 13.88305 129.972128 18.9844667 129.972128 24.08305 132.135921 26.63305 136.175001 26.63305M136.175001 28.4747167C133.578449 28.4747167 131.558909 27.6247167 129.972128 26.0678 128.529599 24.3663833 127.808334 22.0997167 127.808334 19.1247167 127.808334 16.1497167 128.529599 13.7413833 129.972128 12.18305 131.414656 10.48305 133.578449 9.77471667 136.175001 9.77471667 138.914363 9.63305 140.935346 10.3413833 142.377875 12.0413833 143.820403 13.7413833 144.541668 16.00805 144.541668 18.9844667 144.541668 21.95805 143.820403 24.3663833 142.377875 25.9247167 140.935346 27.6247167 138.914363 28.4747167 136.175001 28.4747167M158.101726 9.63305C159.831318 9.63305 161.273847 10.05805 162.140807 11.0497167 163.004882 11.8997167 163.583336 13.3163833 163.583336 15.0163833L163.583336 27.4844667C163.583336 27.7663833 163.43764 28.0497167 163.004882 28.0497167L161.995111 28.0497167C161.562353 28.0497167 161.419543 27.90805 161.419543 27.4844667L161.419543 15.8663833C161.419543 14.30805 161.131037 13.1747167 160.552583 12.4663833 159.977014 11.75805 158.967244 11.4747167 157.667525 11.4747167 156.370692 11.4747167 155.216669 11.6163833 154.061203 12.0413833 152.90718 12.4663833 151.7546 13.03305 150.600577 13.7413833L150.600577 27.4844667C150.600577 27.7663833 150.454882 28.0497167 150.022123 28.0497167L149.012353 28.0497167C148.72529 28.0497167 148.436784 27.90805 148.436784 27.4844667L148.436784 10.6247167C148.436784 10.1997167 148.579594 10.05805 149.012353 10.05805L149.733617 10.05805C150.167818 10.05805 150.312071 10.1997167 150.312071 10.6247167L150.454882 12.18305C151.610347 11.33305 152.90718 10.7663833 154.206899 10.1997167 155.649428 9.77471667 156.946261 9.63305 158.101726 9.63305M183.200861 19.4086167C179.883045 19.4086167 178.15201 20.6822 178.15201 23.2336167 178.15201 25.5002833 179.306033 26.6336167 181.758332 26.6336167 182.625292 26.6336167 183.63362 26.49195 184.789085 26.06695 185.797413 25.6405333 186.952878 25.21695 187.961206 24.5086167L187.961206 20.11695C186.231614 19.5502833 184.64339 19.4086167 183.200861 19.4086167M183.63362 9.63361667C187.816953 9.63361667 189.837936 11.3336167 189.837936 14.8752833L189.837936 27.4836167C189.837936 27.7655333 189.69224 28.0502833 189.259482 28.0502833L188.538217 28.0502833C188.249711 28.0502833 187.961206 27.9086167 187.961206 27.4836167L187.816953 25.9252833C185.797413 27.6252833 183.63362 28.3336167 181.325574 28.3336167 179.594539 28.3336167 178.297706 27.9086167 177.430746 26.91695 176.420976 25.9252833 175.988217 24.79195 175.988217 23.2336167 175.988217 21.5336167 176.565229 20.11695 177.719252 19.1252833 178.873275 18.1336167 180.604309 17.56695 182.625292 17.56695 183.346556 17.56695 184.210631 17.56695 185.220401 17.8488667 186.085918 17.99195 186.952878 18.1336167 187.816953 18.41695L187.816953 15.44195C187.816953 14.0252833 187.528447 13.0336167 186.807183 12.3252833 186.085918 11.7586167 184.931895 11.3336167 183.346556 11.3336167 181.904028 11.3336167 180.315803 11.61695 178.584769 12.04195 178.297706 12.04195 178.15201 12.1836167 178.007757 12.1836167 177.863505 12.1836167 177.719252 12.3252833 177.576441 12.3252833 177.286493 12.3252833 177.14224 12.1836167 177.14224 11.9002833L177.14224 11.3336167C177.14224 10.9086167 177.286493 10.76695 177.576441 10.6252833 178.440516 10.2002833 179.450286 10.0586167 180.461499 9.77528333 181.614079 9.63361667 182.625292 9.63361667 183.63362 9.63361667M194.741091 2.26680833C194.741091 1.983475 194.886786 1.70014167 195.318102 1.70014167L196.329315 1.70014167C196.616378 1.70014167 196.904884 1.84180833 196.904884 2.26680833L196.904884 24.933475C196.904884 25.5001417 197.050579 25.783475 197.19339 26.0668083 197.337643 26.3501417 197.771844 26.3501417 198.347413 26.3501417L198.780171 26.3501417 199.214372 26.3501417C199.501436 26.3501417 199.789941 26.4918083 199.789941 26.9168083L199.789941 27.6251417C199.789941 27.908475 199.645689 28.0501417 199.357183 28.1918083 199.214372 28.1918083 199.068677 28.333475 198.780171 28.333475L198.058907 28.333475C197.050579 28.333475 196.329315 28.0501417 195.750861 27.483475 195.173849 26.9168083 194.886786 26.208475 194.886786 25.2168083L194.886786 2.26680833 194.741091 2.26680833zM210.032761 11.3333333C208.156031 11.3333333 206.859198 11.9 205.705175 12.8916667 204.695405 13.8833333 203.97414 15.4416667 203.828445 17.425 204.838215 17.7083333 205.705175 17.85 206.570692 17.9916667 207.434767 18.1333333 208.444537 18.1333333 209.311497 18.1333333 211.186784 18.1333333 212.483617 17.85 213.350577 17.2833333 214.214652 16.7166667 214.64741 15.8666667 214.64741 14.7333333 214.793106 12.6083333 213.204882 11.3333333 210.032761 11.3333333M214.64741 26.0666667C214.935916 25.925 215.225864 25.925 215.368675 25.7833333 215.51437 25.7833333 215.65718 25.6416667 215.802876 25.6416667 216.089939 25.6416667 216.235634 25.7833333 216.235634 26.0666667L216.235634 26.6333333C216.235634 27.0583333 216.089939 27.2 215.802876 27.3416667 214.071841 28.05 212.196554 28.475 210.319824 28.475 207.580462 28.475 205.416669 27.625 203.97414 26.0666667 202.531611 24.5083333 201.810347 22.2416667 201.810347 19.125 201.810347 17.5666667 201.953157 16.2916667 202.385916 15.1583333 202.820117 14.025 203.395686 12.8916667 204.116951 12.0416667 204.838215 11.1916667 205.705175 10.625 206.859198 10.0583333 207.868968 9.63333333 209.165801 9.35 210.46552 9.35 212.629313 9.35 214.214652 9.775 215.368675 10.7666667 216.52414 11.7583333 217.099709 13.0333333 217.099709 14.7333333 217.099709 16.4333333 216.52414 17.7083333 215.225864 18.4166667 214.071841 19.2666667 212.196554 19.55 209.59856 19.55 208.734485 19.55 207.723272 19.55 206.859198 19.4083333 205.992238 19.2666667 204.98391 19.125 204.116951 18.8416667 204.116951 21.3916667 204.695405 23.2333333 205.705175 24.5083333 206.859198 25.7833333 208.444537 26.35 210.60833 26.35 211.762353 26.6333333 213.204882 26.4916667 214.64741 26.0666667M226.621841 20.11695L221.427295 27.6252833C221.284485 27.9086167 220.995979 28.0502833 220.706031 28.0502833L219.696261 28.0502833C219.409198 28.0502833 219.263502 27.9086167 219.263502 27.6252833 219.263502 27.4836167 219.409198 27.34195 219.553451 27.2002833L225.754882 18.7002833 220.130462 10.9086167C219.984767 10.6252833 219.984767 10.6252833 219.984767 10.4836167 219.984767 10.2002833 220.130462 10.0586167 220.417525 10.0586167L221.572991 10.0586167C221.860054 10.0586167 222.14856 10.2002833 222.294255 10.4836167L227.0546 17.14195 231.814945 10.4836167C231.957755 10.2002833 232.246261 10.0586167 232.536209 10.0586167L233.545979 10.0586167C233.834485 10.0586167 233.978738 10.2002833 233.978738 10.4836167 233.978738 10.6252833 233.834485 10.76695 233.68879 10.9086167L228.06437 18.41695 234.267244 27.0572C234.410054 27.2002833 234.410054 27.4836167 234.410054 27.4836167 234.410054 27.7655333 234.267244 27.9086167 233.978738 27.9086167L232.824715 27.9086167C232.536209 27.9086167 232.246261 27.7655333 232.103451 27.4836167L226.621841 20.11695z"/><g transform="translate(236.132 8.642)"><mask id="amazon-alexa-b" fill="#fff"><use xlink:href="#amazon-alexa-a"/></mask><path fill="#343E48" d="M7.22241379,10.76695 C3.9045977,10.76695 2.17356322,12.0405333 2.17356322,14.59195 C2.17356322,16.8586167 3.32758621,17.99195 5.77988506,17.99195 C6.6454023,17.99195 7.65517241,17.8502833 8.8091954,17.4252833 C9.81896552,16.9988667 10.9729885,16.5752833 11.9827586,15.86695 L11.9827586,11.4752833 C10.2517241,10.9086167 8.66494253,10.76695 7.22241379,10.76695 M7.65517241,0.99195 C11.8385057,0.99195 13.858046,2.69195 13.858046,6.23361667 L13.858046,18.84195 C13.858046,19.1238667 13.7137931,19.4086167 13.2810345,19.4086167 L12.5597701,19.4086167 C12.1270115,19.4086167 11.9827586,19.26695 11.9827586,18.84195 L11.8385057,17.2836167 C9.81896552,18.9836167 7.65517241,19.69195 5.34712644,19.69195 C3.61609195,19.69195 2.31781609,19.26695 1.45229885,18.2752833 C0.442528736,17.2836167 0.00977011494,16.1502833 0.00977011494,14.59195 C0.00977011494,12.89195 0.586781609,11.4752833 1.7408046,10.4836167 C2.89482759,9.49195 4.62586207,8.92528333 6.6454023,8.92528333 C7.36666667,8.92528333 8.23218391,8.92528333 9.24195402,9.2072 C10.1074713,9.35028333 10.9729885,9.49195 11.8385057,9.77528333 L11.8385057,6.80028333 C11.8385057,5.38361667 11.55,4.39195 10.8287356,3.68361667 C10.1074713,3.11695 8.95344828,2.69195 7.36666667,2.69195 C5.92413793,2.69195 4.33735632,2.97528333 2.60632184,3.40028333 C2.31781609,3.40028333 2.17356322,3.54195 2.02931034,3.54195 C1.88505747,3.54195 1.7408046,3.68361667 1.59655172,3.68361667 C1.30804598,3.68361667 1.1637931,3.54195 1.1637931,3.25861667 L1.1637931,2.69195 C1.1637931,2.26695 1.30804598,2.12528333 1.59655172,1.98361667 C2.46206897,1.55861667 3.47183908,1.41695 4.4816092,1.13361667 C5.63563218,0.99195 6.6454023,0.99195 7.65517241,0.99195" mask="url(#amazon-alexa-b)"/></g></g></svg>