<svg xmlns="http://www.w3.org/2000/svg" xmlns:xlink="http://www.w3.org/1999/xlink" viewBox="0 0 226 29"><defs><polygon id="ibm-watson-a" points="0 0 225.65 0 225.65 28.7 0 28.7"/></defs><g fill="none" fill-rule="evenodd"><mask id="ibm-watson-b" fill="#fff"><use xlink:href="#ibm-watson-a"/></mask><path fill="#000" d="M222.483024,5.19942568 C222.75792,5.19942568 222.919624,5.08420946 222.919624,4.83770946 L222.919624,4.64019595 C222.919624,4.39330405 222.75792,4.27808784 222.483024,4.27808784 L221.965958,4.27808784 L221.965958,5.19942568 L222.483024,5.19942568 Z M221.965958,6.99233108 L221.045017,6.99233108 L221.045017,3.55426351 L222.644728,3.55426351 C223.469031,3.55426351 223.856735,4.03158784 223.856735,4.67311486 C223.856735,5.21588514 223.614179,5.56114189 223.243031,5.74219595 L223.969927,6.99233108 L222.968135,6.99233108 L222.402172,5.90679054 L221.965958,5.90679054 L221.965958,6.99233108 Z M224.826571,5.51176351 L224.826571,5.01837162 C224.826571,3.58718243 223.743542,2.61685811 222.402172,2.61685811 C221.061188,2.61685811 219.978159,3.58718243 219.978159,5.01837162 L219.978159,5.51176351 C219.978159,6.94334459 221.061188,7.91366892 222.402172,7.91366892 C223.743542,7.91366892 224.826571,6.94334459 224.826571,5.51176351 Z M219.153856,5.26526351 C219.153856,3.32383108 220.592247,1.87657432 222.402172,1.87657432 C224.196312,1.87657432 225.650874,3.32383108 225.650874,5.26526351 C225.650874,7.20630405 224.196312,8.6539527 222.402172,8.6539527 C220.592247,8.6539527 219.153856,7.20630405 219.153856,5.26526351 Z M199.598118,28.2152365 L199.598118,6.99311486 L205.475658,6.99311486 L205.475658,10.5906824 L205.713593,10.5906824 C206.46821,8.36747973 208.215764,6.5079527 211.512206,6.5079527 C215.76116,6.5079527 218.025011,9.58038514 218.025011,14.9159932 L218.025011,28.2152365 L212.147471,28.2152365 L212.147471,15.4011554 C212.147471,12.6927905 211.392854,11.3587905 209.248356,11.3587905 C207.342179,11.3587905 205.475658,12.3694797 205.475658,14.4715878 L205.475658,28.2152365 L199.598118,28.2152365 Z M189.312615,19.7668311 L189.312615,15.4415203 C189.312615,12.7735203 187.96239,11.2376959 185.658499,11.2376959 C183.355379,11.2376959 182.005154,12.7735203 182.005154,15.4415203 L182.005154,19.7668311 C182.005154,22.4348311 183.355379,23.9710473 185.658499,23.9710473 C187.96239,23.9710473 189.312615,22.4348311 189.312615,19.7668311 Z M175.889293,17.5839932 C175.889293,10.7525338 179.543024,6.5079527 185.658499,6.5079527 C191.774745,6.5079527 195.428091,10.7525338 195.428091,17.5839932 C195.428091,24.4154527 191.774745,28.7003986 185.658499,28.7003986 C179.543024,28.7003986 175.889293,24.4154527 175.889293,17.5839932 Z M155.476527,24.9006149 L158.931978,21.3434122 C160.401171,23.000723 162.18838,24.051777 164.45223,24.051777 C166.755351,24.051777 167.549239,23.2836689 167.549239,22.0307905 C167.549239,20.9797365 166.913975,20.4542095 165.444782,20.2519932 L163.181317,19.9690473 C158.455338,19.3627905 156.151832,17.2606824 156.151832,13.4205338 C156.151832,9.33780405 159.289266,6.5079527 164.253181,6.5079527 C168.621873,6.5079527 170.647017,7.72085811 172.751859,9.82257432 L169.376104,13.3394122 C168.065535,12.0058041 166.318752,11.1565743 164.571198,11.1565743 C162.585324,11.1565743 161.791436,11.8843176 161.791436,12.9353716 C161.791436,14.0671554 162.267692,14.6734122 163.97559,14.9159932 L166.318752,15.2396959 C170.845682,15.8459527 173.188844,17.9476689 173.188844,21.6263581 C173.188844,25.7090878 169.61481,28.7003986 164.253181,28.7003986 C160.242162,28.7003986 157.621409,27.3260338 155.476527,24.9006149 Z M149.28174,28.2152365 C145.23068,28.2152365 143.086568,26.0731554 143.086568,22.0307905 L143.086568,11.6417365 L140.147413,11.6417365 L140.147413,6.99311486 L141.61699,6.99311486 C143.20515,6.99311486 143.682176,6.18464189 143.682176,4.7295473 L143.682176,1.25307432 L148.963723,1.25307432 L148.963723,6.99311486 L153.094094,6.99311486 L153.094094,11.6417365 L148.963723,11.6417365 L148.963723,23.5666149 L152.776462,23.5666149 L152.776462,28.2152365 L149.28174,28.2152365 Z M130.457903,21.7882095 L130.457903,19.2820608 L127.598445,19.2820608 C125.334595,19.2820608 124.143379,20.1308986 124.143379,21.6671149 L124.143379,22.2729797 C124.143379,23.8091959 125.136316,24.5369392 126.883869,24.5369392 C128.829702,24.5369392 130.457903,23.7284662 130.457903,21.7882095 Z M135.024874,28.2152365 C132.920033,28.2152365 131.411184,26.7601419 131.053511,24.4965743 L130.815191,24.4965743 C130.179542,27.2453041 127.876421,28.7003986 124.699331,28.7003986 C120.529689,28.7003986 118.225798,26.19425 118.225798,22.5159527 C118.225798,18.0287905 121.641593,15.8863176 127.16146,15.8863176 L130.457903,15.8863176 L130.457903,14.5523176 C130.457903,12.4905743 129.464966,11.1973311 127.002452,11.1973311 C124.65929,11.1973311 123.428418,12.4098446 122.515178,13.7034797 L119.020455,10.5503176 C120.688312,8.04416892 123.07113,6.5079527 127.439436,6.5079527 C133.317361,6.5079527 136.335443,9.25707432 136.335443,14.2693716 L136.335443,23.5666149 L138.281276,23.5666149 L138.281276,28.2152365 L135.024874,28.2152365 Z M86.8526085,28.2152365 L80.5777397,-0.000195945946 L86.5349765,-0.000195945946 L89.1561145,13.5416284 L90.625307,21.383777 L90.7446596,21.383777 L92.4922133,13.5416284 L95.5499509,-0.000195945946 L102.142452,-0.000195945946 L105.239845,13.5416284 L106.947743,21.383777 L107.066711,21.383777 L108.536288,13.5416284 L111.197082,-0.000195945946 L116.915614,-0.000195945946 L110.482121,28.2152365 L103.611644,28.2152365 L100.116922,12.9353716 L98.7666971,6.75053378 L98.6473445,6.75053378 L97.2578487,12.9353716 L93.7627414,28.2152365 L86.8526085,28.2152365 Z M64.6930583,4.44660135 L64.4943939,4.44660135 L62.151232,9.1759527 L55.5190753,21.4645068 L48.9269595,9.1759527 L46.5837976,4.48696622 L46.3851332,4.48696622 L46.3851332,28.2152365 L43.1287312,28.2152365 L43.1287312,-0.000195945946 L47.4970378,-0.000195945946 L55.4397635,15.1993311 L55.5987721,15.1993311 L63.5811537,-0.000195945946 L67.9498453,-0.000195945946 L67.9498453,28.2152365 L64.6930583,28.2152365 L64.6930583,4.44660135 Z M20.5314262,25.2243176 L28.7521281,25.2243176 C31.6115864,25.2243176 33.35914,23.6881014 33.35914,20.85825 L33.35914,19.4838851 C33.35914,16.6540338 31.6115864,15.1182095 28.7521281,15.1182095 L20.5314262,15.1182095 L20.5314262,25.2243176 Z M20.5314262,12.2076284 L28.1965608,12.2076284 C30.8173138,12.2076284 32.4058589,10.7928986 32.4058589,8.28675 L32.4058589,6.91238514 C32.4058589,4.40623649 30.8173138,2.99111486 28.1965608,2.99111486 L20.5314262,2.99111486 L20.5314262,12.2076284 Z M17.1957124,-0.000195945946 L28.5935046,-0.000195945946 C33.1604756,-0.000195945946 35.979893,2.87002027 35.979893,7.27606081 C35.979893,11.4798851 33.3194842,12.9757365 31.4926187,13.2586824 L31.4926187,13.5012635 C33.4781077,13.62275 36.9331741,15.3607905 36.9331741,20.0501689 C36.9331741,24.6983986 33.8754365,28.2152365 29.785106,28.2152365 L17.1957124,28.2152365 L17.1957124,-0.000195945946 Z M7.70017036e-05,28.2152365 L7.70017036e-05,25.385777 L3.89212811,25.385777 L3.89212811,2.82965541 L7.70017036e-05,2.82965541 L7.70017036e-05,-0.000195945946 L11.119893,-0.000195945946 L11.119893,2.82965541 L7.22784191,2.82965541 L7.22784191,25.385777 L11.119893,25.385777 L11.119893,28.2152365 L7.70017036e-05,28.2152365 Z" mask="url(#ibm-watson-b)"/></g></svg>