<svg xmlns="http://www.w3.org/2000/svg" viewBox="0 0 198 42"><g fill="none" fill-rule="evenodd"><path fill="#F25022" d="M0,0 L20.1312741,0 C20.130065,6.6626506 20.1312741,13.3253012 20.130065,19.9879518 C13.4208494,19.9879518 6.71042471,19.9879518 0,19.9879518 L0,0"/><path fill="#FEFEFE" d="M20.114094,0 L22.1677852,0 C22.1677852,6.66 22.1665772,13.32 22.1689933,19.98 C28.8724832,19.98 35.5771812,19.9788 42.2806711,19.98 C42.2830872,13.32 42.2818792,6.66 42.2818792,0 L198,0 L198,15.5388 C196.564832,15.5436 195.129664,15.528 193.695705,15.5484 C193.663087,13.7448 193.692081,11.9412 193.68,10.1388 C192.244832,10.5684 190.818121,11.0256 189.375705,11.4336 C189.340671,12.8016 189.373289,14.1708 189.357584,15.5388 C187.236242,15.5376 185.114899,15.5412 182.993557,15.5364 C183.020134,14.4588 182.918658,13.3728 183.074497,12.3012 C183.203758,11.4564 183.696644,10.6116 184.525369,10.2852 C185.570336,9.8592 186.738523,10.1424 187.731544,10.5768 C187.725503,9.342 187.741208,8.1072 187.723087,6.8736 C185.633154,6.3024 183.237584,6.414 181.383221,7.6128 C180.187248,8.3736 179.319866,9.5904 178.929664,10.9392 C178.468188,12.4332 178.703758,14.0112 178.630067,15.5448 C177.623758,15.5376 176.618658,15.528 175.614765,15.5508 C175.625638,16.7052 175.620805,17.8596 175.617181,19.0128 C176.625906,19.0332 177.635839,19.0092 178.644564,19.0284 C178.636107,23.886 178.642148,28.7424 178.642148,33.6 C180.091812,33.6 181.542685,33.6 182.992349,33.6 C182.992349,28.7412 182.991141,23.8824 182.993557,19.0236 C185.114899,19.02 187.23745,19.0212 189.36,19.0224 C189.36604,22.1196 189.35396,25.2156 189.364832,28.3116 C189.384161,29.754 189.631812,31.296 190.593423,32.4348 C191.425772,33.4428 192.747383,33.9036 194.023087,33.9972 C195.367651,34.092 196.756913,33.9288 198,33.3924 L198,42 L42.2818792,42 C42.2818792,35.34 42.2818792,28.68 42.2818792,22.02 C35.5771812,22.02 28.8724832,22.0188 22.1689933,22.0212 C22.1665772,28.68 22.1689933,35.34 22.1677852,42 L20.114094,42 C20.114094,35.34 20.115302,28.6812 20.114094,22.0212 C13.409396,22.0176 6.70469799,22.0212 0,22.0188 L0,19.98 C6.70469799,19.98 13.409396,19.98 20.1128859,19.98 C20.114094,13.32 20.1128859,6.66 20.114094,0"/><path fill="#80BA01" d="M22.1701864,0 L42.300856,0 C42.300856,6.6626506 42.3020651,13.3253012 42.299647,19.9879518 C35.5906328,19.9867513 28.8804096,19.9879518 22.1713955,19.9879518 C22.1689774,13.3253012 22.1701864,6.6626506 22.1701864,0"/><path fill="#777" d="M181.353918 7.65448338C183.211551 6.45149406 185.611346 6.33950406 187.704964 6.91270017 187.723117 8.15061111 187.707385 9.38972623 187.713436 10.6288414 186.718664 10.1929233 185.548416 9.90873364 184.501607 10.3362223 183.671421 10.663763 183.177666 11.5115152 183.048176 12.3592674 182.892062 13.4346122 182.993718 14.5244074 182.967094 15.6057731 185.092177 15.6105899 187.21726 15.6069773 189.342343 15.6081815 189.358076 14.2354009 189.325401 12.8614161 189.360496 11.4886355 190.805456 11.0792097 192.234683 10.620412 193.672382 10.1893107 193.684484 11.9980094 193.655439 13.8079122 193.688114 15.6178151 195.124603 15.5973438 196.562301 15.6129983 198 15.6081815L198 19.1292434C196.557461 19.0702379 195.113711 19.1135889 193.671172 19.1087721 193.677223 21.1330214 193.672382 23.1572707 193.673592 25.1827242 193.696586 26.3038283 193.613083 27.4309535 193.744993 28.548445 193.824865 29.2071389 194.065692 29.9368802 194.686516 30.2776669 195.726064 30.856884 197.045165 30.6040034 198 29.9681892L198 33.5241726C196.754721 34.0624471 195.363009 34.2262175 194.016074 34.1310862 192.73812 34.0371591 191.414178 33.5747488 190.580362 32.5632262 189.617055 31.4204466 189.368967 29.8730579 189.349604 28.4256173 189.338713 25.318798 189.350815 22.2119788 189.344764 19.1039553 187.21847 19.1027511 185.092177 19.1015469 182.967094 19.1051595 182.964673 23.980939 182.965884 28.8567186 182.965884 33.7324981 181.513663 33.7324981 180.060232 33.7324981 178.608011 33.7324981 178.608011 28.8579228 178.60196 23.9845516 178.610431 19.1099763 177.599927 19.0907092 176.588214 19.114793 175.57771 19.0943218 175.58134 17.9370918 175.586181 16.7786576 175.57529 15.6202235 176.580953 15.5973438 177.587826 15.6069773 178.595909 15.6142025 178.66973 14.0752432 178.433744 12.4917287 178.896035 10.9925078 179.286924 9.63899429 180.155836 8.41794207 181.353918 7.65448338M88.3921902 7.87463686C89.2903105 7.7397153 90.2626556 8.0439021 90.8576912 8.74058798 91.5554045 9.50350809 91.6840608 10.7178021 91.1669613 11.609511 90.5954302 12.6152899 89.3162892 13.0826092 88.2016798 12.8409769 87.0450098 12.6349149 86.0813242 11.5690345 86.1332816 10.3804982 86.0998804 9.12940739 87.1551099 8.01446466 88.3921902 7.87463686M54.7890429 8.351849C56.9030662 8.351849 59.0158787 8.351849 61.1299021 8.351849 63.1034748 13.3374006 65.0915769 18.3181341 67.0675713 23.3036857 67.5724669 24.5503747 68.0446714 25.8115181 68.5737826 27.0485709 71.11279 20.8187393 73.6881208 14.6045667 76.2077557 8.36630337 78.2406567 8.33378104 80.2747685 8.35907618 82.3088803 8.35425806 82.3040372 16.7847668 82.3064587 25.2152755 82.3076695 33.6457843 80.8402032 33.6421707 79.3739476 33.6578296 77.907692 33.6373526 77.9234322 27.4159527 77.9064812 21.1945528 77.9149567 14.9719485 77.9173782 14.6924974 77.907692 14.4130463 77.8883195 14.1335952 77.8023541 14.2636845 77.7260749 14.3985919 77.6594819 14.5383175 75.139847 20.9066701 72.5717809 27.2569547 70.0666754 33.6313299 69.0229823 33.6686704 67.9780784 33.633739 66.9331746 33.6506024 64.3336281 27.2822498 61.7667728 20.8994429 59.1805449 14.5262722 59.1127412 14.3937738 59.0400944 14.2648891 58.9613936 14.1408224 58.9081193 16.8666749 58.9529181 19.5949364 58.9383888 22.3207888 58.9395996 26.0957873 58.9359672 29.8707858 58.9395996 33.6457843 57.5556771 33.6493979 56.1717546 33.6457843 54.7890429 33.6469888 54.7878321 25.2152755 54.7866213 16.7835623 54.7890429 8.351849M100.340022 15.6158624C102.440644 15.0206427 104.705642 15.044692 106.805055 15.6351018 107.23775 15.7553483 107.657149 15.9224908 108.046332 16.1497565 108.022159 17.5289828 108.046332 18.9094116 108.033037 20.2898404 106.629802 19.2232548 104.84947 18.5474699 103.065513 18.7711283 101.648983 18.8985894 100.29772 19.6296876 99.4504608 20.7684211 98.3614732 22.180114 98.1100754 24.0547556 98.2974151 25.781494 98.4376177 27.1330637 98.9996369 28.4834309 100.055991 29.3792667 101.153439 30.3496552 102.692042 30.6935599 104.12791 30.5853382 105.546858 30.4230055 106.886034 29.8253808 108.033037 28.9908708 108.045123 30.2979492 108.026994 31.6050277 108.042706 32.9121062 106.263583 33.9654648 104.130328 34.2372217 102.093764 34.1374172 100.010063 34.0279929 97.9324048 33.2427839 96.424018 31.7853973 94.7850977 30.2137768 93.8955362 27.9723836 93.7903842 25.7273831 93.6840236 23.3934003 94.1614377 20.9584105 95.5114923 19.0092161 96.6427824 17.3462083 98.4122362 16.1689959 100.340022 15.6158624M129.533259 15.3053356C131.610133 15.0408764 133.801188 15.1586809 135.729027 16.0362048 137.402065 16.7911157 138.757803 18.1867393 139.508987 19.8576409 140.310651 21.6367303 140.505358 23.6345997 140.369544 25.5639501 140.236133 27.4476212 139.644801 29.3348985 138.466944 30.8314974 137.261443 32.4206571 135.444178 33.4977274 133.49831 33.8980226 131.834887 34.2442238 130.094543 34.2430217 128.431121 33.8932142 126.440783 33.4676753 124.598278 32.3124692 123.431238 30.6319509 122.061077 28.6845692 121.671663 26.208269 121.845938 23.8750172 121.963724 21.8951791 122.579094 19.8997139 123.843488 18.3466169 125.228071 16.6071963 127.351819 15.5806136 129.533259 15.3053356M147.878565 15.3369954C149.90901 14.9846249 152.034576 15.2431903 153.956487 15.9611604 153.958926 17.2888639 153.956487 18.6153647 153.957707 19.9418656 152.615052 19.0314747 150.974842 18.5420043 149.345607 18.5985279 148.524893 18.6297963 147.622472 18.9725458 147.24809 19.742229 146.950535 20.5034937 147.156628 21.5016766 147.884662 21.9574734 149.129758 22.7788696 150.615093 23.1276323 151.90531 23.8636418 152.921143 24.4264727 153.906488 25.1624822 154.421112 26.2232018 155.388165 28.2099465 154.978417 30.8352877 153.278452 32.3169278 151.655315 33.8129995 149.317559 34.2267042 147.167604 34.1473306 145.640806 34.0499176 144.106692 33.752868 142.703062 33.1371215 142.70916 31.7408681 142.694526 30.3458173 142.710379 28.9507666 143.890843 29.7962154 145.253009 30.4011383 146.694443 30.6464748 147.698081 30.8076272 148.789521 30.814843 149.724868 30.3722752 150.619971 29.9333152 150.780943 28.6789722 150.249247 27.9116943 149.751696 27.3200003 149.021224 26.9940876 148.332214 26.6741881 147.038338 26.1005336 145.67861 25.6206842 144.542049 24.7608038 143.743285 24.1462599 143.138419 23.2803663 142.901839 22.3038308 142.550627 20.8642827 142.66038 19.2419349 143.509143 17.983984 144.478635 16.5179781 146.162747 15.6388556 147.878565 15.3369954M164.239346 15.2990767C166.400848 15.0309889 168.695865 15.1764536 170.668522 16.171865 172.388582 17.0314292 173.722531 18.5846557 174.388904 20.3807241 174.909734 21.7548247 175.092565 23.2383243 175.062494 24.7013868 175.066103 26.886964 174.475509 29.1302463 173.103069 30.8638009 171.818436 32.542055 169.852997 33.6324392 167.778099 33.9750627 165.748909 34.30326 163.605449 34.2179046 161.677298 33.4593242 159.723886 32.6911262 158.100053 31.1234735 157.277311 29.19276 156.419687 27.2247787 156.329474 25.010349 156.596504 22.9077227 156.876766 20.8050964 157.829414 18.7493554 159.453248 17.3512111 160.783588 16.1838869 162.496431 15.5226836 164.239346 15.2990767M117.721464 15.7981829C118.936596 15.0790267 120.480573 15.0187959 121.80695 15.458481 121.800837 16.9052257 121.80695 18.3519703 121.803282 19.798715 120.935331 19.2445913 119.852224 19.0072818 118.827797 19.1096742 117.578435 19.2494098 116.588236 20.1950339 116.0748 21.2791889 115.517355 22.4271886 115.412222 23.7257654 115.447674 24.980976 115.447674 27.8708515 115.448896 30.7607269 115.447674 33.6506024 114.000273 33.6506024 112.554094 33.6506024 111.107915 33.6506024 111.104247 27.6106543 111.112804 21.5695015 111.104247 15.5295534 112.552871 15.5114841 114.001495 15.5187118 115.450119 15.5259395 115.444007 16.5631145 115.450119 17.6002895 115.446452 18.6386691 115.917102 17.5099432 116.617575 16.413742 117.721464 15.7981829M86.3861004 15.4428218C87.8297128 15.4368552 89.2745343 15.4225353 90.7181467 15.4499818 90.7012199 21.4321202 90.7169377 27.4154519 90.7108924 33.3975904 89.2696981 33.3975904 87.8285038 33.3975904 86.3885185 33.3975904 86.3848913 27.4130653 86.3897276 21.4285402 86.3861004 15.4428218"/><path fill="#FEFEFE" d="M130.95395 18.7348591C132.250092 18.6494052 133.630089 19.0176996 134.562066 19.9649145 135.55873 20.9494402 135.944459 22.3780858 136.051073 23.7405346 136.12774 25.2317661 136.066646 26.7855836 135.443731 28.1672896 135.031648 29.098858 134.276963 29.8859971 133.324621 30.2591059 132.210561 30.6887828 130.958741 30.7140579 129.808744 30.4143673 128.638382 30.1050481 127.645312 29.2553229 127.105052 28.1733075 126.410262 26.7795657 126.306044 25.1679765 126.449794 23.6394341 126.580366 22.249303 127.061928 20.8194539 128.116092 19.8602033 128.880361 19.1428716 129.922546 18.7926308 130.95395 18.7348591M165.534731 18.7375015C166.751393 18.6520308 168.050602 18.9349269 168.986127 19.7619465 169.848677 20.4818268 170.326011 21.5604434 170.544938 22.6462829 170.791381 23.9199173 170.788988 25.2380927 170.580828 26.5177461 170.415735 27.4711662 170.087942 28.4221786 169.46705 29.1769695 168.841372 29.9353718 167.910632 30.397636 166.949983 30.539686 165.918752 30.6949779 164.832489 30.6203415 163.868251 30.2026183 162.827449 29.7596151 162.021127 28.8531437 161.596431 27.8106415 161.085601 26.5683063 160.983913 25.1923478 161.085601 23.8633381 161.1837 22.5764618 161.546186 21.2558787 162.390791 20.2555099 163.161224 19.3213509 164.343192 18.8049151 165.534731 18.7375015M193.670797 18.9866554C195.113461 18.9914224 196.557336 18.9485193 198 19.0069152L198 29.7338753C197.045082 30.3631204 195.725867 30.6133883 194.686229 30.0401556 194.065351 29.7028898 193.824503 28.980688 193.744624 28.3287997 193.612703 27.2228538 193.696213 26.1073738 193.673217 24.9978527 193.672007 22.9933258 193.676848 20.9899906 193.670797 18.9866554"/><path fill="#02A4EF" d="M0,22.0120482 C6.71024559,22.014449 13.4204912,22.0108478 20.1307368,22.014449 C20.1319458,28.6766995 20.1307368,35.3377495 20.1307368,42 L0,42 L0,22.0120482"/><path fill="#FFB902" d="M22.1710933,22.0135488 C28.8803089,22.0111478 35.5907336,22.0123483 42.3011583,22.0123483 C42.3011583,28.6748989 42.3011583,35.3374494 42.3011583,42 L22.1698842,42 C22.1710933,35.3374494 22.1686751,28.6748989 22.1710933,22.0135488"/></g></svg>