<svg xmlns="http://www.w3.org/2000/svg" xmlns:xlink="http://www.w3.org/1999/xlink" viewBox="0 0 389 225"><defs><path id="valuable-a" d="M55.6078912,91.0360138 L55.6078912,91.102366 C30.0130816,91.102366 10,63.9607787 10,40.8221341 C10,17.780692 30.4244242,2.88038575 55.2929252,15.9106632 C80.215411,2.76998136 100.705236,17.6810799 100.705236,40.7593831 C100.705236,63.7439519 80.9577939,90.6783312 55.6078912,91.0360138 Z"/></defs><g fill="none" fill-rule="evenodd" transform="translate(-12)"><ellipse cx="236" cy="219" fill="#F3C5C5" opacity=".288" rx="20" ry="6"/><g transform="translate(177 127)"><mask id="valuable-b" fill="#fff"><use xlink:href="#valuable-a"/></mask><use fill="#E97D82" transform="rotate(-16 55.353 51.051)" xlink:href="#valuable-a"/><path stroke="#51565A" stroke-linecap="round" stroke-linejoin="round" stroke-width="10" d="M-134.725004,90.2650914 L219.370278,-67.473715" mask="url(#valuable-b)" opacity=".198"/></g><path stroke="#B8BFC5" stroke-linecap="round" stroke-linejoin="round" stroke-width="10" d="M0.274995698,158.265091 L354.370278,0.526284985" transform="translate(41 54)"/><g transform="rotate(-21 419.515 -495.122)"><path fill="#9EF1B6" d="M26.7376756,19.9159799 C26.7376756,27.3601327 19.6839802,37.5474421 17.9205563,37.5474421 C16.1571325,37.5474421 9.1034371,27.3601327 9.1034371,19.9159799 C9.1034371,12.471827 16.1571325,2.2845176 17.9205563,2.2845176 C19.6839802,2.2845176 26.7376756,12.471827 26.7376756,19.9159799 Z" transform="rotate(-145 17.92 19.916)"/><path stroke="#AA797C" stroke-linecap="round" stroke-linejoin="round" stroke-width="5.4" d="M3.87610619,3.21285121 C7.63421829,8.03212802 9.51327434,13.1191424 9.51327434,18.4738944 C9.51327434,23.8286465 8.7079646,29.1833985 7.09734513,34.5381505"/></g><g transform="rotate(-24 238.072 -583.713)"><path fill="#5FCF80" d="M2.8,0 L111.2,0 C112.746397,-2.84068575e-16 114,1.2536027 114,2.8 L114,56.2 C114,57.7463973 112.746397,59 111.2,59 L2.8,59 C1.2536027,59 8.30661207e-15,57.7463973 3.99680289e-15,56.2 L0,2.8 C-1.8937905e-16,1.2536027 1.2536027,-2.38046668e-15 2.8,-2.66453526e-15 Z"/><rect width="102.81" height="47.894" x="5.595" y="5.553" fill="#C6CCD2" stroke="#3F4850" stroke-linecap="square" stroke-width="2.1" opacity=".261" rx="2.8"/><ellipse cx="57.699" cy="30.194" fill="#2D3339" opacity=".139" rx="19.233" ry="19.088"/><path fill="#FFF" d="M56.7023159,18.3092207 C56.7023159,17.8011972 57.1539745,17.3529412 57.6658543,17.3529412 C58.177734,17.3529412 58.6293926,17.8011972 58.6293926,18.3092207 L58.6293926,19.2953839 C60.6166905,19.50457 62.1824403,20.1620122 63.7180796,21.2079429 C64.0492959,21.4470128 64.320291,21.7458501 64.320291,22.1941061 C64.320291,22.8216646 63.8084113,23.2699206 63.1760892,23.2699206 C62.9653152,23.2699206 62.7545412,23.2400368 62.5136566,23.0607344 C61.1887914,22.1044549 59.8940367,21.536664 58.5390609,21.3274778 L58.5390609,28.7087602 C63.1158681,29.7248072 65.0429448,31.4879475 65.0429448,34.5062047 C65.0429448,37.7037642 62.3932143,39.9151606 58.6293926,40.1542305 L58.6293926,42.2759756 C58.6293926,42.7839991 58.177734,43.2322551 57.6658543,43.2322551 C57.1539745,43.2322551 56.7023159,42.7839991 56.7023159,42.2759756 L56.7023159,40.094463 C54.2332489,39.8852769 52.1255087,38.9588811 50.1683215,37.4348106 C49.8371052,37.1957408 49.6564417,36.8969034 49.6564417,36.4785311 C49.6564417,35.8808565 50.1683215,35.4027167 50.7705329,35.4027167 C51.0716387,35.4027167 51.3125233,35.5222516 51.4630761,35.6417866 C53.0589365,36.9865546 54.7150181,37.8531829 56.7926476,38.0922528 L56.7926476,30.5914355 C52.3362828,29.5455048 50.3790955,27.9018994 50.3790955,24.7641073 C50.3790955,21.6860827 52.9987154,19.4149188 56.7023159,19.2356164 L56.7023159,18.3092207 Z M62.7244306,34.6556233 C62.7244306,32.892483 61.8211134,31.8166686 58.5390609,30.979924 L58.5390609,38.181904 C61.1285702,38.0324853 62.7244306,36.6279498 62.7244306,34.6556233 Z M52.6976096,24.6146886 C52.6976096,26.3479452 53.5105951,27.4237596 56.7926476,28.2903879 L56.7926476,21.2378266 C54.2332489,21.3573616 52.6976096,22.7917808 52.6976096,24.6146886 Z"/></g><g transform="rotate(-24 251.558 53.47)"><rect width="182" height="27" y="81" fill="#F9845B" rx="4"/><rect width="182" height="27" x="17" y="54" fill="#53BBB4" rx="4"/><rect width="182" height="27" y="27" fill="#838CC7" rx="4"/><rect width="182" height="27" x="17" fill="#39ADD1" rx="4"/><rect width="8" height="27" x="30" fill="#FFF" opacity=".254"/><rect width="8" height="27" x="13" y="27" fill="#FFF" opacity=".254"/><rect width="8" height="27" x="30" y="54" fill="#FFF" opacity=".254"/><rect width="8" height="27" x="13" y="81" fill="#FFF" opacity=".254"/><rect width="8" height="27" x="178" fill="#FFF" opacity=".254"/><rect width="8" height="27" x="161" y="27" fill="#FFF" opacity=".254"/><rect width="8" height="27" x="178" y="54" fill="#FFF" opacity=".254"/><rect width="8" height="27" x="161" y="81" fill="#FFF" opacity=".254"/><circle cx="57.5" cy="13.5" r="6.5" fill="#FFF" opacity=".25"/><circle cx="57.5" cy="67.5" r="6.5" fill="#FFF" opacity=".25"/><rect width="43" height="9" x="34" y="36" fill="#FFF" opacity=".25" rx="4.5"/><rect width="65" height="9" x="59" y="90" fill="#FFF" opacity=".25" rx="4.5"/></g></g></svg>